<svg width="693" height="489" viewBox="0 0 693 489" fill="none" xmlns="http://www.w3.org/2000/svg">
<path d="M348.44 186.145C347.797 185.957 347.158 185.692 346.547 185.484C346.117 185.338 345.594 184.954 345.469 184.503C345.134 183.298 344.979 181.517 346.623 181.431C346.978 181.412 347.387 181.469 347.433 181.907C347.381 180.918 348.367 180.509 349.129 180.157C349.188 180.13 349.272 180.086 349.371 180.036C349.328 179.954 349.255 179.616 349.221 179.477C349.078 178.892 348.943 178.385 349.132 177.791C349.191 177.607 349.354 176.93 349.555 176.835C349.752 176.742 350.451 179.044 350.701 180.11C350.84 180.531 351.043 181.246 350.934 181.577C351.02 181.443 351.123 181.284 351.148 181.24C352.076 179.583 353.482 178.466 355.469 178.498C356.639 178.517 356.942 179.079 356.996 180.114C357.029 180.737 357.055 181.715 356.194 181.76C355.815 181.78 355.621 181.865 355.785 182.323C355.964 182.822 356.119 183.195 356.147 183.735L356.215 185.024C356.234 185.386 355.466 185.631 355.215 185.757C354.185 186.273 353.004 186.178 352.163 185.421C351.99 185.265 351.866 185.106 351.768 184.937C351.98 185.707 351.844 186.828 351.881 187.536C351.945 188.753 350.593 188.486 349.962 188.109C349.348 187.743 348.661 186.963 348.44 186.145Z" fill="#FFB7C5"/>
<path d="M384.678 197.882C384.411 197.141 383.861 197.163 383.16 197.163C382.637 197.163 382.108 196.999 381.905 197.574C381.821 197.813 381.295 199.706 381.7 199.73C382.401 199.771 382.958 198.841 383.189 198.253C383.192 198.246 383.596 197.71 383.388 197.739C383.099 197.781 383.052 198.021 382.829 197.671C382.567 197.258 382.535 196.718 382.373 196.256C382.151 195.622 382.578 196.884 382.624 197.043C382.724 197.393 382.984 197.717 383.029 198.082C383.07 198.411 383.111 198.73 383.189 199.057C383.267 199.385 383.548 200.467 383.548 200.403C383.548 200.096 383.316 197.999 383.674 197.859C384.381 197.581 384.91 197.657 385.374 197.015C385.514 196.82 385.826 196.194 385.51 196.844C385.097 197.695 384.57 198.436 383.982 199.171C383.615 199.629 382.528 199.073 382.168 198.857C381.651 198.547 381.067 198.627 380.525 198.447C379.841 198.219 380.448 198.466 380.799 198.618C381.579 198.956 382.284 199.229 383.132 199.314C383.823 199.383 384.481 199.34 385.026 199.884C385.462 200.321 384.7 199.574 384.581 199.468C384.034 198.983 383.448 198.501 382.932 197.985" stroke="#FFB7C5" stroke-width="3" stroke-linecap="round"/>
<path d="M375.198 174.13C376.809 173.928 374.372 172.731 376.015 171.861C377.279 171.192 378.561 170.854 378.464 172.496C378.41 173.418 376.104 174.827 376.015 173.313C375.981 172.742 376.015 169.152 376.015 171.271C376.015 173.637 377.778 174.13 377.24 174.13C376.582 174.13 374.553 172.839 375.198 174.13Z" stroke="#FFB7C5" stroke-width="3" stroke-linecap="round"/>
<path d="M3.12692 205.068C3.27767 204.367 3.69426 203.685 4.00671 203.039C4.14703 202.748 4.46252 202.413 4.79178 202.364C5.66938 202.232 6.93774 202.277 6.85621 203.443C6.83863 203.694 6.76277 203.977 6.45027 203.972C6.13976 203.95 6.22227 203.968 6.45027 203.972C7.15173 204.021 7.35443 204.751 7.53671 205.319C7.60984 205.547 7.95503 206.316 7.59252 206.397C7.33238 206.455 6.53291 206.619 6.32341 206.431C6.06616 206.2 6.53118 206.597 6.59936 206.647C7.6863 207.445 8.35176 208.532 8.1572 209.929C8.04268 210.752 7.62062 210.916 6.88653 210.865C6.44475 210.834 5.75366 210.768 5.79638 210.157C5.81516 209.889 5.77143 209.745 5.43459 209.821C5.06762 209.903 4.79148 209.981 4.40862 209.954C4.10403 209.933 3.79943 209.911 3.49483 209.89C3.23823 209.872 3.13177 209.31 3.0648 209.122C2.79015 208.352 2.95937 207.528 3.56568 207.001C3.85448 206.75 4.13059 206.688 4.49131 206.602C4.89038 206.507 4.35894 206.627 4.24407 206.679C3.69789 206.929 2.70081 206.661 2.10016 206.619C1.23663 206.559 1.54177 205.629 1.86207 205.217C2.30424 204.648 3.34691 204.047 4.09937 204.41C4.62768 204.666 5.14195 205.269 5.47366 205.744C5.93317 206.402 4.76086 206.734 4.52363 206.199C4.37609 205.866 4.37704 205.596 4.62804 205.292C4.73962 205.157 5.09689 204.784 5.2872 204.776C5.99016 204.748 6.52805 205.184 7.16223 205.457C7.34921 205.537 7.97029 205.554 7.76722 205.54C7.31118 205.508 7.84574 205.461 8.00773 205.442C8.43249 205.392 8.80107 205.341 9.20301 205.526C9.32805 205.583 9.79056 205.756 9.84049 205.906C9.89927 206.083 7.42816 206.476 7.09263 206.452C6.88275 206.437 6.61215 206.465 6.4125 206.388C6.19201 206.303 6.05188 206.099 5.84845 206.013C5.20184 205.737 4.91996 206.862 4.88719 207.331C4.82655 208.198 6.54282 208.406 7.15388 208.449C7.57297 208.478 6.63241 208.15 6.51241 208.125C6.31271 208.083 5.3315 207.885 5.26616 208.243C5.23589 208.409 5.9294 208.511 6.0544 208.519C6.49879 208.55 6.49526 207.946 6.43915 207.648C6.22198 206.497 5.36976 205.424 4.94042 204.342C4.86509 204.152 4.46075 203.388 4.74411 203.221C5.09889 203.012 5.5251 203.01 5.92444 203.05C6.59053 203.117 5.60482 204.787 5.43743 205.09C5.08996 205.718 4.72673 206.347 4.33975 206.952C4.20014 207.171 3.95775 207.322 3.84328 207.545C3.75708 207.713 3.68347 207.898 3.77185 208.097C3.93388 208.463 4.73963 208.704 5.07537 208.861C5.56313 209.089 6.12884 209.262 6.66801 209.3" stroke="#FFB7C5" stroke-width="3" stroke-linecap="round"/>
<path d="M17.9336 193.938C16.9345 193.757 16.2655 192.974 16.5229 192.338C16.7529 191.768 18.2378 191.736 18.4589 192.319C18.477 192.367 18.625 192.591 18.4222 192.552C17.8345 192.437 17.3521 191.902 17.2135 191.551C17.0678 191.182 17.1635 190.897 17.7646 190.742C18.0553 190.667 18.3902 190.746 18.6904 190.711C18.9745 190.679 19.1909 190.441 19.5206 190.397C20.0915 190.323 20.4088 190.689 20.5419 190.988C20.5935 191.104 20.563 191.446 20.6595 191.342C20.8477 191.139 21.0941 191.242 21.2913 191.384C21.7673 191.725 21.8251 192.192 21.8351 192.626C21.8396 192.822 21.9908 192.586 22.1657 192.598C22.4967 192.62 22.4593 193.035 22.4008 193.166C22.2724 193.452 21.7699 193.642 21.4089 193.803C21.2696 193.865 21.0956 193.886 21.0048 193.787C20.9436 193.72 20.8372 193.501 20.7734 193.629C20.4238 194.329 19.2038 194.678 18.4993 194.015C18.2325 193.764 17.8442 193.26 18.1136 192.945C18.3822 192.631 19.6679 192.889 20.0019 193.012C20.2184 193.092 20.3717 193.216 20.0717 193.308C19.5785 193.457 18.9967 193.27 18.7344 192.994C18.195 192.424 18.3583 191.523 19.3369 191.188C19.643 191.084 20.8456 190.68 21.1958 190.965C21.4347 191.159 21.2497 191.504 21.0783 191.686C20.9057 191.869 20.6604 192.02 20.428 192.172C20.3489 192.224 20.2262 192.38 20.1011 192.389C19.657 192.419 19.643 191.846 19.6676 191.677C19.6717 191.649 19.7106 191.382 19.8366 191.449C20.1558 191.619 20.3767 191.923 20.6007 192.142C20.6092 192.15 21.1079 192.598 20.8432 192.598C20.5761 192.598 20.3228 192.447 20.248 192.305" stroke="#FFB7C5" stroke-width="3" stroke-linecap="round"/>
<path d="M289.473 210.422C264.091 224.855 267.261 257.119 271.408 275.865C263.777 274.206 249.212 265.513 251.999 244.014C254.786 222.514 273.547 204.596 282.505 201.123C306.891 191.667 311.868 187.279 322.171 171.76C340.392 144.313 356.013 137.512 372.436 156.423C385.575 171.553 383.551 191.592 381.394 199.721C379.901 193.749 387.366 177.326 366.464 156.423C345.562 135.521 324.31 183.206 322.171 187.279C319.157 193.017 299.592 207.27 289.473 210.422Z" fill="#212529" stroke="#212529"/>
<path d="M5.79566 209.558C18.2851 195.431 56.8286 164.676 112.997 163.437C183.207 161.888 136.122 205.66 154.662 215.255C173.201 224.849 225.167 235.396 237.71 244.704C259.869 261.149 255.806 269.466 251.077 302.647C248.777 318.787 239.976 324.283 236.549 325.715C234.51 326.16 234.929 326.392 236.549 325.715C240.46 324.861 253.412 323.224 284.264 325.711C282.895 301.503 270.075 247.929 262.603 239.879C257.027 233.872 243.214 224.442 230.29 220.686C226.359 219.028 218.892 213.77 220.463 206.007C220.559 205.461 220.786 200.416 223.208 193.975C225.63 187.535 215.859 181.144 217.1 182.079C218.34 183.014 219.105 188.452 219.487 191.171C219.793 193.346 217.948 196.009 216.988 197.068C214.988 199.937 211.962 207.868 215.857 216.641C194.516 210.739 174.277 204.885 173.034 196.036C167.729 172.545 164 158.076 142.618 149.292C73.3656 152.094 10.4426 191.102 5.79566 209.558Z" fill="url(#paint0_linear_42_106)"/>
<path d="M130.785 201.625C141.547 210.596 157.81 216.62 164.596 218.51L163.135 209.29C155.055 207.419 137.769 202.187 133.267 196.228C127.639 188.78 128.466 186.981 123.805 171.595C113.86 150.93 97.4253 138.788 91.3861 138.922C81.2902 139.144 79.3754 146.77 72.5202 149.694C81.7998 152.116 83.9593 130.646 104.811 153.475C125.663 176.305 117.333 190.412 130.785 201.625Z" fill="url(#paint1_linear_42_106)"/>
<path d="M335.259 187.032C328.888 186.235 320.992 187.861 317.84 190.018L316.347 186.036L319.831 184.045C324.31 184.045 330.686 183.598 334.263 184.045C338.245 184.543 345.212 184.543 350.686 177.576C349.193 184.543 341.629 187.828 335.259 187.032Z" fill="#212529" stroke="#212529"/>
<path d="M343.755 181.284C343.038 181.922 342.504 181.178 342.277 180.497C341.858 179.24 342.196 178.338 342.623 177.163C343.28 175.358 346.227 175.676 346.303 177.666C346.387 179.848 345.687 180.718 343.614 180.718C341.347 180.718 342.601 176.754 344.62 176.754C346.93 176.754 348.625 179.132 346.02 180.434C345.171 180.859 344.031 181.411 343.126 181.064C341.938 180.607 341.822 179.31 342.513 178.311C345.284 174.308 346.542 182.19 343.472 180.655C342.697 180.267 343.118 178.17 344.039 178.17C344.913 178.17 345.59 179.4 344.825 180.088C344.343 180.522 344.111 179.016 345.014 179.868C345.508 180.335 345.879 181.235 346.461 181.567C347.332 182.065 346.586 181.412 346.586 180.434C346.586 179.471 347.081 178.83 348.002 179.239C349.139 179.745 349.446 177.06 348.71 176.471C348.21 176.071 347.524 176.152 346.869 176.188C346.009 176.236 345.954 177.565 345.045 177.305C344.536 177.159 345.24 175.783 344.731 175.638C344.281 175.509 343.371 175.283 342.969 175.685C342.299 176.355 343.875 178.464 342.481 178.154C340.6 177.736 341.086 179.795 342.34 179.868C343.552 179.94 342.573 179.122 342.324 179.994C342.101 180.777 342.418 180.666 343.189 180.151" stroke="#FFB7C5" stroke-width="3" stroke-linecap="round"/>
<path d="M52.0044 173.453C51.0039 173.311 50.0052 172.792 49.0662 172.416C48.6445 172.248 48.1425 171.837 48.0407 171.379C47.7695 170.159 47.7078 168.372 49.3543 168.372C49.7093 168.372 50.1147 168.451 50.1378 168.891C50.1378 169.329 50.1547 169.211 50.1378 168.891C50.1378 167.9 51.1438 167.543 51.9238 167.231C52.2366 167.106 53.2846 166.546 53.4332 167.047C53.5398 167.407 53.8494 168.514 53.606 168.827C53.3072 169.211 53.8189 168.519 53.8825 168.418C54.8968 166.812 56.3586 165.77 58.3417 165.906C59.509 165.986 59.782 166.563 59.782 167.6C59.782 168.224 59.7574 169.202 58.8947 169.202C58.5155 169.202 58.3171 169.277 58.4569 169.743C58.6092 170.251 58.7449 170.631 58.7449 171.172C58.7449 171.602 58.7449 172.032 58.7449 172.463C58.7449 172.825 57.9652 173.03 57.7079 173.142C56.6527 173.604 55.4779 173.447 54.6776 172.647C54.2964 172.266 54.1824 171.884 54.0266 171.385C53.8542 170.834 54.0738 171.569 54.1591 171.725C54.5643 172.468 54.2858 173.896 54.2858 174.744C54.2858 175.963 52.949 175.626 52.3386 175.216C51.4958 174.651 50.5474 173.245 50.9847 172.151C51.2917 171.384 52.0896 170.602 52.7246 170.089C53.6042 169.379 54.1853 170.993 53.4562 171.379C53.0027 171.62 52.6235 171.645 52.1715 171.322C51.9706 171.178 51.4118 170.713 51.3822 170.446C51.2728 169.461 51.8329 168.662 52.1542 167.744C52.2489 167.474 52.2118 166.599 52.2118 166.886C52.2118 167.53 52.0932 166.783 52.0505 166.557C51.9385 165.965 51.8302 165.452 52.0505 164.869C52.119 164.688 52.3166 164.021 52.5229 163.936C52.7658 163.836 53.5599 167.27 53.5599 167.744C53.5599 168.041 53.6255 168.418 53.5369 168.706C53.439 169.025 53.1664 169.241 53.0645 169.536C52.7405 170.472 54.35 170.757 55.0117 170.757C56.2365 170.757 56.3598 168.325 56.3598 167.462C56.3598 166.87 55.9918 168.224 55.9681 168.395C55.9286 168.68 55.7464 170.078 56.2561 170.135C56.4923 170.161 56.5672 169.177 56.5672 169C56.5672 168.373 55.7183 168.437 55.3055 168.545C53.7079 168.963 52.2847 170.266 50.8061 170.976C50.5467 171.101 49.5131 171.744 49.2506 171.362C48.9219 170.884 48.8763 170.285 48.8934 169.72C48.922 168.778 51.3667 169.999 51.8085 170.204C52.7257 170.631 53.6455 171.079 54.5336 171.564C54.8539 171.739 55.0907 172.064 55.415 172.203C55.6592 172.308 55.9269 172.393 56.1985 172.249C56.6965 171.986 56.9559 170.83 57.1433 170.342C57.4156 169.635 57.6042 168.822 57.6042 168.061" stroke="#FFB7C5" stroke-width="3" stroke-linecap="round"/>
<path d="M358.282 157.235C357.281 157.092 356.283 156.573 355.344 156.198C354.922 156.029 354.42 155.619 354.318 155.161C354.047 153.94 353.985 152.154 355.632 152.154C355.987 152.154 356.392 152.232 356.415 152.672C356.415 153.111 356.432 152.993 356.415 152.672C356.415 151.681 357.421 151.325 358.201 151.013C358.514 150.888 359.562 150.327 359.711 150.829C359.817 151.188 360.127 152.296 359.883 152.609C359.585 152.993 360.096 152.3 360.16 152.2C361.174 150.594 362.636 149.552 364.619 149.688C365.786 149.768 366.059 150.345 366.059 151.382C366.059 152.005 366.035 152.983 365.172 152.983C364.793 152.983 364.594 153.059 364.734 153.525C364.887 154.032 365.022 154.413 365.022 154.953C365.022 155.384 365.022 155.814 365.022 156.244C365.022 156.606 364.243 156.811 363.985 156.924C362.93 157.385 361.755 157.229 360.955 156.428C360.574 156.047 360.46 155.665 360.304 155.167C360.132 154.615 360.351 155.35 360.436 155.507C360.842 156.25 360.563 157.677 360.563 158.525C360.563 159.745 359.226 159.407 358.616 158.998C357.773 158.432 356.825 157.026 357.262 155.933C357.569 155.165 358.367 154.383 359.002 153.87C359.882 153.16 360.463 154.775 359.734 155.161C359.28 155.401 358.901 155.426 358.449 155.103C358.248 154.96 357.689 154.494 357.66 154.228C357.55 153.242 358.11 152.444 358.432 151.526C358.526 151.255 358.489 150.38 358.489 150.667C358.489 151.311 358.371 150.565 358.328 150.339C358.216 149.747 358.108 149.234 358.328 148.651C358.396 148.469 358.594 147.802 358.8 147.717C359.043 147.617 359.837 151.052 359.837 151.526C359.837 151.822 359.903 152.2 359.814 152.488C359.716 152.806 359.444 153.023 359.342 153.317C359.018 154.253 360.627 154.539 361.289 154.539C362.514 154.539 362.637 152.106 362.637 151.243C362.637 150.651 362.269 152.005 362.245 152.177C362.206 152.461 362.024 153.86 362.533 153.916C362.77 153.943 362.845 152.958 362.845 152.782C362.845 152.154 361.996 152.218 361.583 152.326C359.985 152.745 358.562 154.048 357.083 154.758C356.824 154.882 355.79 155.525 355.528 155.144C355.199 154.666 355.154 154.067 355.171 153.502C355.199 152.559 357.644 153.78 358.086 153.986C359.003 154.412 359.923 154.861 360.811 155.345C361.131 155.52 361.368 155.846 361.692 155.985C361.937 156.089 362.204 156.175 362.476 156.031C362.974 155.767 363.233 154.611 363.421 154.124C363.693 153.416 363.882 152.604 363.882 151.842" stroke="#FFB7C5" stroke-width="3" stroke-linecap="round"/>
<path d="M78.1805 149.802C78.3113 151.044 79.0066 152.23 79.3659 153.428C79.4402 153.676 79.4812 153.943 79.4881 154.201C79.4923 154.356 79.6853 154.761 79.5674 154.66C79.1927 154.338 78.999 153.51 78.8442 153.065C78.6943 152.634 78.6062 152.197 78.4777 151.764C78.4599 151.704 78.4355 151.354 78.3258 151.354C78.1922 151.354 77.9421 151.536 77.8239 151.599C77.1967 151.931 76.5027 152.237 75.8063 152.411C75.734 152.429 75.7059 152.428 75.8228 152.411C76.1505 152.364 76.4593 152.212 76.7804 152.134C77.7277 151.903 78.7199 151.828 79.6829 151.678C80.1532 151.605 80.6081 151.602 81.0665 151.48C81.7921 151.286 79.6216 151.933 78.973 152.312C78.6578 152.496 78.2858 152.568 77.9494 152.701C77.7482 152.782 77.4864 153.111 77.3451 152.81C76.9626 151.998 77.2292 150.679 78.2234 150.436C78.9627 150.256 79.4478 150.512 79.7721 151.196C79.9907 151.656 79.9525 152.389 79.8712 152.877C79.8261 153.147 79.6821 153.395 79.4617 153.56C79.0926 153.837 78.2817 153.831 77.9064 153.57C77.4268 153.236 77.1138 152.663 77.2658 152.054C77.3827 151.587 77.7873 151.343 78.1838 151.117C78.6292 150.862 79.4411 150.568 79.9636 150.72C80.5839 150.901 80.6769 151.76 80.6769 152.299" stroke="#FFB7C5" stroke-width="3" stroke-linecap="round"/>
<path d="M42.8389 177.981C41.5916 177.916 40.3116 178.417 39.0724 178.585C38.8163 178.619 38.5459 178.618 38.2902 178.585C38.1362 178.564 37.7062 178.692 37.8244 178.591C38.2002 178.271 39.0491 178.21 39.5128 178.126C39.9621 178.046 40.4066 178.027 40.8552 177.968C40.9172 177.96 41.2662 177.99 41.2833 177.882C41.3042 177.75 41.1638 177.474 41.1205 177.348C40.8907 176.676 40.6968 175.943 40.6338 175.228C40.6273 175.154 40.633 175.126 40.6312 175.244C40.6262 175.575 40.7285 175.904 40.7554 176.234C40.8346 177.205 40.7541 178.197 40.7514 179.172C40.7501 179.648 40.6816 180.097 40.7307 180.569C40.8083 181.316 40.5085 179.071 40.2363 178.371C40.104 178.031 40.0912 177.652 40.0116 177.299C39.9639 177.088 39.6797 176.778 39.9985 176.685C40.8611 176.435 42.1215 176.904 42.206 177.924C42.2689 178.683 41.9393 179.122 41.2136 179.335C40.7245 179.479 40.0071 179.327 39.5381 179.17C39.2779 179.083 39.0558 178.902 38.927 178.659C38.7113 178.251 38.8435 177.451 39.1605 177.121C39.5657 176.7 40.1808 176.48 40.7577 176.725C41.2012 176.914 41.3786 177.352 41.5404 177.779C41.7221 178.258 41.8856 179.106 41.6533 179.599C41.3776 180.183 40.5147 180.14 39.9828 180.056" stroke="#FFB7C5" stroke-width="3" stroke-linecap="round"/>
<path d="M348.51 155.861C347.262 155.796 345.982 156.298 344.743 156.465C344.487 156.5 344.217 156.498 343.961 156.465C343.807 156.445 343.377 156.572 343.495 156.471C343.871 156.151 344.72 156.09 345.184 156.007C345.633 155.926 346.077 155.907 346.526 155.848C346.588 155.84 346.937 155.87 346.954 155.762C346.975 155.63 346.835 155.355 346.791 155.228C346.561 154.557 346.368 153.823 346.305 153.108C346.298 153.034 346.304 153.007 346.302 153.125C346.297 153.456 346.399 153.784 346.426 154.114C346.505 155.085 346.425 156.077 346.422 157.052C346.421 157.528 346.352 157.978 346.401 158.449C346.479 159.196 346.179 156.951 345.907 156.252C345.775 155.911 345.762 155.533 345.682 155.18C345.635 154.968 345.351 154.658 345.669 154.566C346.532 154.315 347.792 154.785 347.877 155.805C347.94 156.563 347.61 157.002 346.884 157.215C346.395 157.359 345.678 157.207 345.209 157.05C344.949 156.963 344.727 156.783 344.598 156.539C344.382 156.131 344.514 155.331 344.831 155.001C345.237 154.58 345.852 154.36 346.429 154.606C346.872 154.794 347.049 155.232 347.211 155.659C347.393 156.139 347.556 156.987 347.324 157.479C347.048 158.063 346.186 158.021 345.654 157.936" stroke="#FFB7C5" stroke-width="3" stroke-linecap="round"/>
<path d="M382.352 190.698C381.104 190.633 379.824 191.135 378.585 191.302C378.329 191.337 378.059 191.335 377.803 191.302C377.649 191.282 377.219 191.409 377.337 191.308C377.713 190.989 378.562 190.927 379.026 190.844C379.475 190.763 379.919 190.744 380.368 190.685C380.43 190.677 380.779 190.708 380.796 190.599C380.817 190.467 380.677 190.192 380.633 190.065C380.403 189.394 380.21 188.661 380.147 187.945C380.14 187.871 380.146 187.844 380.144 187.962C380.139 188.293 380.241 188.622 380.268 188.951C380.347 189.923 380.267 190.914 380.264 191.889C380.263 192.365 380.194 192.815 380.243 193.287C380.321 194.033 380.021 191.788 379.749 191.089C379.617 190.749 379.604 190.37 379.524 190.017C379.477 189.805 379.192 189.495 379.511 189.403C380.374 189.152 381.634 189.622 381.719 190.642C381.782 191.4 381.452 191.839 380.726 192.053C380.237 192.196 379.52 192.044 379.051 191.887C378.791 191.801 378.569 191.62 378.44 191.376C378.224 190.968 378.356 190.168 378.673 189.838C379.078 189.417 379.694 189.197 380.27 189.443C380.714 189.631 380.891 190.069 381.053 190.496C381.235 190.976 381.398 191.824 381.166 192.316C380.89 192.9 380.027 192.858 379.496 192.774" stroke="#FFB7C5" stroke-width="3" stroke-linecap="round"/>
<path d="M80.4936 144.696C79.7791 144.696 78.2945 144.643 78.2945 143.655C78.2945 143.225 78.8404 143.08 79.1662 142.998C79.438 142.93 80.0633 142.869 80.2196 143.147C80.3811 143.434 80.3748 143.708 80.3748 144.029C80.3748 144.235 80.1103 144.724 79.8662 144.597C79.5019 144.406 79.368 143.536 79.3049 143.17C79.2317 142.745 79.186 142.345 79.186 141.915C79.186 141.859 79.186 141.45 79.186 141.691C79.186 142.206 79.1948 142.724 79.2488 143.236C79.3105 143.823 79.4238 144.364 79.4238 144.96C79.4238 145.313 79.5006 145.776 79.4238 146.122C79.3846 146.298 79.3367 145.771 79.3049 145.594C79.1957 144.984 79.1151 144.369 79.0704 143.751C79.065 143.677 79.045 142.953 78.9152 142.916C78.6091 142.828 78.165 143.175 77.8916 143.282C77.6819 143.365 77.4891 143.434 77.2741 143.51C77.0312 143.596 76.2636 143.685 76.5212 143.685C77.308 143.685 78.0922 143.507 78.8888 143.507C79.6615 143.507 80.4342 143.507 81.2069 143.507" stroke="#FFB7C5" stroke-width="3" stroke-linecap="round"/>
<path d="M92.0293 140.174C91.5816 140.161 91.3121 139.916 90.9825 139.622C90.7883 139.449 90.3645 138.999 90.4344 138.707C90.5299 138.309 90.8926 138.083 91.2698 138.001C91.5458 137.941 91.7776 138.012 92.0425 138.08C92.3215 138.152 92.6481 138.154 92.8944 138.318C93.1988 138.521 93.1781 139.248 92.9175 139.487C92.6191 139.76 92.3749 140.041 91.9104 140.055C91.7843 140.058 91.6144 140.079 91.491 140.048C91.2066 139.977 91.1033 139.555 90.8769 139.404C90.5652 139.196 89.993 139.388 89.6386 139.401C89.3892 139.41 89.1609 139.48 88.9187 139.546C88.8806 139.557 89.2378 139.193 89.3249 139.133C89.6724 138.896 89.8826 138.526 89.9457 138.116C90.0562 137.398 90.8318 137.202 91.4811 137.202C91.5485 137.202 91.7597 137.166 91.7915 137.238C91.9216 137.531 91.9698 137.743 91.9698 138.067C91.9698 138.229 91.8866 138.619 92.0293 138.747C92.212 138.911 92.6793 138.834 92.8614 138.701C93.0987 138.528 93.3573 138.272 93.6275 138.156C93.7714 138.094 93.566 138.463 93.5482 138.513C93.4528 138.782 93.4192 139.077 93.3996 139.361C93.3775 139.682 93.3369 139.975 93.3369 140.306C93.3369 140.38 93.3871 140.805 93.3303 140.847C93.244 140.912 92.5921 140.011 92.5048 139.909C92.4597 139.857 92.1721 139.454 92.1481 139.487C91.976 139.72 91.9715 140.188 91.8774 140.464C91.8259 140.616 91.7873 140.766 91.7453 140.92C91.7252 140.993 91.5116 141.219 91.5075 141.138C91.481 140.608 91.8089 140.079 91.9434 139.579C92.0175 139.304 92.0793 139.022 92.1481 138.747" stroke="#FFB7C5" stroke-width="3" stroke-linecap="round"/>
<path d="M97.8541 151.169C97.6376 150.7 97.265 149.686 97.5305 149.155C97.8093 148.597 98.7525 148.711 99.2145 148.884C99.7558 149.087 100.095 149.406 100.113 150.04C100.118 150.252 100.274 151.154 99.8617 151.169C99.5218 151.182 99.0938 151.014 98.8282 150.806C98.4833 150.536 98.1378 150.247 97.8342 149.931C97.7095 149.801 97.4974 149.707 97.4974 149.505C97.4974 149.292 97.4429 149.01 97.5239 148.812C97.6397 148.528 97.9503 148.264 98.2107 148.112C98.5144 147.934 98.6605 147.874 99.0428 147.9C99.6259 147.941 99.7723 148.621 99.8023 149.082C99.8398 149.66 99.8991 150.398 99.6009 150.928C99.4396 151.215 99.1186 151.233 98.8612 151.377C98.2592 151.716 97.4974 150.947 97.4974 150.35C97.4974 149.768 97.7012 148.577 98.4782 149.234C98.5226 149.272 99.1935 149.95 98.8909 150.037C98.6607 150.103 98.2963 149.845 98.1116 149.733C97.7517 149.515 97.4071 149.304 97.0252 149.129C96.64 148.952 96.1785 148.968 95.8068 148.805C95.2352 148.555 96.9675 149.271 97.5701 149.433C97.705 149.469 97.9252 149.628 98.0456 149.518C98.3758 149.218 98.384 148.749 98.5079 148.346C98.6436 147.905 98.8191 147.352 99.0428 146.949C99.0996 146.847 99.1333 146.506 99.1617 146.619C99.2902 147.133 99.2753 147.788 99.2806 148.316C99.2839 148.65 99.1795 149.135 99.3268 149.446C99.4063 149.614 99.6434 149.598 99.8023 149.683C100.03 149.806 100.269 149.879 100.506 149.977C100.659 150.041 100.952 149.989 101.064 150.129C101.097 150.171 100.594 149.992 100.476 149.954C100.153 149.852 99.7741 149.946 99.4985 150.126C98.8676 150.537 98.7956 151.156 98.6267 151.81C98.5578 152.077 98.5374 152.38 98.5805 152.655C98.6746 153.255 98.628 152.339 98.6267 152.18C98.6234 151.769 98.5079 151.376 98.5079 150.968C98.5079 150.548 99.7996 151.215 99.9509 151.285C100.312 151.453 100.582 151.632 100.856 151.906C100.895 151.945 100.994 151.97 100.938 151.876C100.728 151.519 100.463 151.171 100.185 150.866C100.049 150.715 99.9002 150.542 99.7263 150.433C99.6232 150.368 99.4835 150.325 99.4126 150.218C99.3561 150.134 99.2519 150.163 99.1749 150.086C98.8369 149.748 97.9525 150.416 97.6625 150.542C97.2991 150.7 96.8988 150.9 96.5266 151.024C96.4519 151.049 96.3057 151.166 96.4111 151.06C96.5512 150.92 96.6448 150.741 96.7842 150.601C96.9113 150.474 97.0608 150.323 97.2003 150.218" stroke="#FFB7C5" stroke-width="3" stroke-linecap="round"/>
<path d="M155.584 154.367C155.317 153.626 154.767 153.648 154.066 153.648C153.543 153.648 153.014 153.485 152.811 154.059C152.727 154.298 152.201 156.191 152.606 156.215C153.307 156.257 153.864 155.327 154.095 154.738C154.098 154.731 154.502 154.195 154.294 154.225C154.005 154.266 153.958 154.507 153.735 154.156C153.473 153.744 153.441 153.203 153.279 152.741C153.057 152.107 153.484 153.369 153.53 153.529C153.63 153.878 153.89 154.203 153.935 154.567C153.976 154.896 154.017 155.215 154.095 155.542C154.173 155.87 154.454 156.952 154.454 156.888C154.454 156.582 154.222 154.485 154.58 154.344C155.287 154.066 155.816 154.143 156.28 153.5C156.42 153.305 156.732 152.679 156.416 153.329C156.003 154.181 155.476 154.921 154.888 155.656C154.521 156.114 153.434 155.559 153.074 155.343C152.557 155.033 151.973 155.112 151.431 154.932C150.747 154.704 151.354 154.951 151.705 155.103C152.485 155.441 153.19 155.714 154.038 155.799C154.729 155.868 155.387 155.825 155.932 156.369C156.369 156.806 155.606 156.059 155.487 155.953C154.94 155.468 154.354 154.986 153.838 154.47" stroke="#FFB7C5" stroke-width="3" stroke-linecap="round"/>
<path d="M14.5616 200.716C14.0277 200.503 13.7612 200.049 13.6604 199.507C13.5402 198.861 14.2209 199.041 14.6985 199.079C15.3277 199.129 15.799 200.403 15.3602 200.842C14.7141 201.488 13.5356 200.571 13.4379 199.838C13.4058 199.597 13.308 198.772 13.4778 198.56C13.7772 198.186 13.9659 198.252 14.4532 198.252C15.2221 198.252 15.5609 198.97 15.5884 199.712C15.5956 199.907 15.6896 200.489 15.4857 200.591C15.1333 200.767 14.3086 200.591 14.014 200.402C13.6636 200.178 13.3029 199.78 13.0785 199.427C12.959 199.239 12.9285 198.836 12.7933 198.686C12.7727 198.663 12.2438 198.414 12.6222 198.36C12.9646 198.311 13.4172 198.358 13.7402 198.229C14.2427 198.028 14.6149 198.136 14.921 197.585C15.0874 197.285 15.4042 197.249 15.3773 197.653C15.3319 198.335 15.1777 198.975 15.1777 199.667C15.1777 199.923 15.1269 200.087 15.4058 200.18C15.6929 200.276 16.5868 200.408 16.2843 200.408C15.9496 200.408 15.615 200.408 15.2804 200.408C14.8444 200.408 14.9723 201.085 14.9723 201.378C14.9723 203.452 14.339 200.242 13.9456 200.328C13.6674 200.389 13.5205 200.7 13.2268 200.716C12.7899 200.74 12.6111 200.848 13.2668 200.471C13.3945 200.397 13.6958 200.325 13.7345 200.152C13.7496 200.084 13.7598 199.875 13.8885 199.912C14.1372 199.983 14.0746 200.826 14.1737 201.024C14.2598 201.196 14.8503 201.332 15.018 201.332C15.3263 201.332 15.3362 201.454 15.5884 201.538" stroke="#FFB7C5" stroke-width="3" stroke-linecap="round"/>
<path d="M221.709 191.117C223.321 190.916 220.884 189.719 222.526 188.849C223.79 188.18 225.073 187.842 224.976 189.484C224.922 190.405 222.615 191.815 222.526 190.301C222.492 189.729 222.526 186.14 222.526 188.259C222.526 190.624 224.29 191.117 223.751 191.117C223.093 191.117 221.064 189.827 221.709 191.117Z" stroke="#FFB7C5" stroke-width="3" stroke-linecap="round"/>
<path d="M338.37 190.922C339.981 190.721 337.544 189.524 339.187 188.654C340.451 187.985 341.733 187.647 341.637 189.289C341.583 190.21 339.276 191.62 339.187 190.106C339.153 189.534 339.187 185.945 339.187 188.064C339.187 190.429 340.951 190.922 340.412 190.922C339.754 190.922 337.725 189.632 338.37 190.922Z" stroke="#FFB7C5" stroke-width="3" stroke-linecap="round"/>
<path d="M218.443 200.1C214.994 200.1 217.787 195.965 218.398 198.104C219.431 201.722 213.786 198.645 216.81 198.467C217.704 198.415 219.131 199.284 217.627 199.284C216.568 199.284 216.397 197.127 217.264 196.879C219.188 196.33 217.065 199.411 218.443 200.1Z" stroke="#FFB7C5" stroke-width="3" stroke-linecap="round"/>
<path d="M338.789 153.988C335.34 153.988 338.132 149.853 338.743 151.992C339.777 155.61 334.132 152.532 337.155 152.355C338.049 152.302 339.476 153.171 337.972 153.171C336.914 153.171 336.742 151.014 337.609 150.767C339.533 150.217 337.41 153.299 338.789 153.988Z" stroke="#FFB7C5" stroke-width="3" stroke-linecap="round"/>
<path d="M385.57 182.853C382.121 182.853 384.913 178.718 385.524 180.857C386.558 184.475 380.913 181.397 383.937 181.22C384.83 181.167 386.258 182.036 384.753 182.036C383.695 182.036 383.524 179.879 384.39 179.632C386.314 179.082 384.192 182.164 385.57 182.853Z" stroke="#FFB7C5" stroke-width="3" stroke-linecap="round"/>
<path d="M36.6622 190.527C34.0236 188.181 38.4907 186.071 38.6438 188.828C38.7135 190.082 38.0066 190.988 36.5521 190.653C35.4896 190.407 36.1537 188.481 36.8037 188.12C37.4971 187.735 38.662 188.612 38.0147 189.331C37.518 189.883 36.1211 189.251 36.096 189.677C36.0675 190.161 35.8869 191.456 36.2218 191.36C36.41 191.306 37.6136 189.302 37.7946 188.985C38.1417 188.378 39.1331 188.017 39.7762 187.979C40.2948 187.948 37.9362 187.806 37.3699 188.12C36.3745 188.673 36.9019 186.406 36.3791 186.406C36.1292 186.406 36.9794 189.348 35.8129 188.765C32.9838 187.351 36.1174 188.828 37.3699 188.828C38.1409 188.828 38.6735 189.431 39.1471 190.023C39.5304 190.502 38.3608 189.593 38.3608 188.828" stroke="#FFB7C5" stroke-width="3" stroke-linecap="round"/>
<path d="M287.702 98.1172C287.931 97.1329 288.535 96.1832 288.991 95.2805C289.196 94.8751 289.648 94.4108 290.113 94.3493C291.353 94.1855 293.138 94.2798 292.995 95.92C292.964 96.2736 292.85 96.6706 292.41 96.6553M292.41 96.6553C291.973 96.6171 292.089 96.6442 292.41 96.6553ZM292.41 96.6553C293.397 96.7417 293.664 97.775 293.907 98.5791C294.004 98.9017 294.472 99.9945 293.959 100.099C293.591 100.174 292.461 100.386 292.171 100.116C291.814 99.7847 292.459 100.355 292.554 100.427C294.065 101.577 294.976 103.124 294.668 105.088C294.486 106.244 293.888 106.466 292.855 106.375C292.233 106.321 291.261 106.211 291.337 105.352C291.37 104.974 291.312 104.77 290.835 104.868C290.316 104.976 289.925 105.078 289.387 105.031C288.958 104.993 288.53 104.956 288.101 104.918C287.74 104.887 287.604 104.092 287.514 103.826C287.146 102.735 287.405 101.578 288.272 100.85C288.685 100.504 289.076 100.424 289.586 100.312C290.15 100.188 289.399 100.343 289.236 100.414C288.46 100.753 287.062 100.351 286.217 100.277C285.002 100.171 285.455 98.8688 285.916 98.2964C286.553 97.5062 288.037 96.6839 289.088 97.2148C289.825 97.5876 290.535 98.4506 290.991 99.1278C291.622 100.066 289.962 100.504 289.641 99.7442C289.442 99.2715 289.45 98.8915 289.811 98.4694C289.971 98.2817 290.483 97.7657 290.752 97.7594C291.743 97.7363 292.49 98.3639 293.376 98.764C293.638 98.882 294.512 98.9212 294.226 98.8962C293.585 98.8401 294.339 98.787 294.567 98.7641C295.167 98.7041 295.687 98.641 296.249 98.9112C296.424 98.9953 297.071 99.2503 297.138 99.4632C297.216 99.7138 293.726 100.206 293.254 100.164C292.958 100.139 292.576 100.171 292.297 100.058C291.989 99.9323 291.796 99.6418 291.512 99.5146C290.608 99.1104 290.183 100.689 290.125 101.348C290.019 102.568 292.431 102.903 293.291 102.978C293.88 103.03 292.564 102.545 292.395 102.507C292.115 102.443 290.738 102.139 290.637 102.642C290.59 102.875 291.564 103.035 291.74 103.051C292.366 103.105 292.375 102.254 292.304 101.834C292.026 100.206 290.852 98.6742 290.274 97.1393C290.172 96.8701 289.622 95.7843 290.025 95.5561C290.53 95.2704 291.13 95.277 291.692 95.3434C292.628 95.454 291.199 97.783 290.956 98.2052C290.451 99.0817 289.924 99.9589 289.364 100.801C289.162 101.105 288.816 101.313 288.65 101.624C288.524 101.858 288.416 102.117 288.536 102.4C288.755 102.919 289.884 103.279 290.353 103.508C291.034 103.841 291.827 104.099 292.585 104.166" stroke="#FFB7C5" stroke-width="3" stroke-linecap="round"/>
<path d="M350.574 89.7754C346.499 89.2028 349.476 84.0047 351.73 85.5576C356.573 88.8943 347.5 91.6082 348.006 88.0067C348.575 83.9609 354.743 86.4761 350.315 87.6115C349.983 87.6966 350.171 88.0712 350.791 89.1177C351.888 90.967 350.172 90.6126 351.584 88.8223C352.625 87.5015 356.11 89.9904 352.032 89.4172C349.814 89.1055 351.118 91.7493 349.961 91.9107C348.416 92.1263 348.087 91.1015 347.122 90.2916C346.019 89.3657 347.342 87.8438 348.228 87.3182C348.496 87.1596 349.575 87.3824 349.411 87.3594C348.684 87.2572 346.916 87.3632 346.505 86.6693C345.678 85.2743 347.848 85.6894 348.239 86.3498C349.081 87.7693 350.099 88.093 351.436 87.644" stroke="#FFB7C5" stroke-width="3" stroke-linecap="round"/>
<path d="M317.493 89.1468C313.418 88.5742 316.395 83.376 318.649 84.9289C323.492 88.2656 314.419 90.9795 314.925 87.378C315.494 83.3322 321.662 85.8474 317.234 86.9828C316.902 87.0679 317.09 87.4425 317.71 88.489C318.807 90.3383 317.091 89.9839 318.503 88.1936C319.544 86.8728 323.029 89.3617 318.951 88.7885C316.733 88.4768 318.037 91.1206 316.88 91.2821C315.335 91.4976 315.006 90.4728 314.041 89.6629C312.938 88.737 314.261 87.2151 315.147 86.6895C315.415 86.5309 316.494 86.7537 316.33 86.7307C315.603 86.6285 313.835 86.7345 313.424 86.0406C312.597 84.6456 314.767 85.0607 315.158 85.7212C316 87.1406 317.018 87.4643 318.355 87.0153" stroke="#FFB7C5" stroke-width="3" stroke-linecap="round"/>
<path d="M399.213 82.5684C398.242 82.2876 397.325 81.6352 396.448 81.1326C396.054 80.9069 395.613 80.4305 395.576 79.963C395.478 78.7167 395.665 76.9386 397.296 77.1677C397.647 77.2171 398.038 77.3516 397.999 77.7902C397.938 78.2244 397.972 78.1102 397.999 77.7902C398.137 76.8092 399.183 76.5961 399.999 76.3957C400.326 76.3153 401.442 75.9059 401.519 76.4232C401.575 76.7945 401.727 77.9342 401.443 78.2101C401.093 78.549 401.697 77.9345 401.774 77.8436C403.001 76.3944 404.594 75.566 406.539 75.9767C407.684 76.2185 407.874 76.8279 407.729 77.8545C407.643 78.4723 407.482 79.4371 406.628 79.317C406.252 79.2642 406.045 79.3115 406.119 79.7924C406.199 80.3162 406.281 80.7119 406.205 81.2473C406.145 81.6733 406.086 82.0993 406.026 82.5252C405.975 82.8841 405.175 82.9785 404.904 83.0541C403.795 83.3644 402.653 83.0456 401.972 82.1417C401.648 81.7112 401.588 81.3171 401.503 80.8017C401.409 80.2316 401.524 80.9902 401.587 81.1568C401.885 81.9489 401.411 83.3239 401.293 84.1639C401.123 85.3715 399.846 84.8513 399.298 84.3607C398.543 83.6834 397.799 82.1589 398.384 81.1372C398.795 80.4198 399.694 79.7564 400.394 79.3369C401.364 78.7558 401.715 80.4359 400.939 80.7166C400.457 80.8913 400.078 80.8634 399.675 80.4808C399.496 80.3107 399.008 79.772 399.015 79.5038C399.044 78.513 399.71 77.8 400.156 76.9355C400.287 76.6807 400.372 75.8095 400.332 76.0935C400.243 76.7313 400.229 75.9754 400.218 75.7459C400.19 75.144 400.154 74.621 400.453 74.0743C400.546 73.9042 400.835 73.2712 401.051 73.2158C401.305 73.1506 401.614 76.6619 401.548 77.1312C401.507 77.4247 401.519 77.8077 401.391 78.0807C401.25 78.3822 400.95 78.5591 400.808 78.8365C400.357 79.7181 401.911 80.2249 402.566 80.317C403.779 80.4874 404.24 78.0959 404.36 77.2413C404.442 76.6552 403.889 77.9448 403.842 78.111C403.763 78.3875 403.388 79.747 403.885 79.874C404.115 79.9329 404.327 78.9682 404.351 78.7934C404.438 78.1719 403.589 78.1175 403.165 78.1671C401.525 78.3591 399.934 79.4514 398.371 79.9485C398.097 80.0357 396.984 80.5289 396.777 80.1142C396.518 79.5951 396.556 78.9958 396.652 78.4386C396.811 77.509 399.062 79.0585 399.471 79.3235C400.32 79.8736 401.168 80.4458 401.98 81.0491C402.273 81.2668 402.463 81.6223 402.764 81.8051C402.992 81.9427 403.245 82.0644 403.534 81.9598C404.064 81.768 404.481 80.6593 404.735 80.2029C405.103 79.5398 405.403 78.7618 405.509 78.0078" stroke="#FFB7C5" stroke-width="3" stroke-linecap="round"/>
<path d="M353.601 246.19C352.659 244.169 359.559 242.853 357.895 245.268C357.469 245.885 355.625 246.261 354.985 246.339C353.638 246.503 354.267 245.142 355.368 244.81C356.565 244.45 356.352 246.251 355.366 245.224C354.908 244.746 354.017 244.262 353.751 243.691C353.56 243.282 353.132 243.53 353.417 243.862C353.707 244.201 354.269 244.14 354.568 244.453C355.59 245.517 354.944 245.005 354.071 246.257C353.249 247.435 353.629 247 355.204 246.808C356.393 246.664 356.519 246.948 357.296 247.326C358.454 247.889 358.614 248.481 357.912 246.975C357.589 246.283 356.025 245.419 357.407 244.431C362.125 241.059 356.876 244.812 356.728 243.445C356.695 243.14 357.464 241.421 357.561 241.628C357.73 241.99 356.862 243.126 356.763 243.572" stroke="#FFB7C5" stroke-width="3" stroke-linecap="round"/>
<path d="M403.221 187.19C402.549 185.75 405.938 185.525 405.319 186.981C405.161 187.354 404.258 187.43 403.94 187.421C403.269 187.403 403.461 186.553 403.99 186.436C404.565 186.308 404.627 187.492 404.028 186.712C403.749 186.349 403.25 185.941 403.06 185.534C402.924 185.242 402.73 185.367 402.906 185.617C403.086 185.871 403.366 185.884 403.549 186.121C404.17 186.929 403.792 186.526 403.466 187.279C403.16 187.989 403.312 187.734 404.096 187.756C404.687 187.772 404.778 187.974 405.21 188.3C405.853 188.786 405.991 189.197 405.49 188.124C405.26 187.631 404.382 186.905 404.992 186.376C407.074 184.57 404.758 186.58 404.553 185.652C404.507 185.445 404.735 184.369 404.804 184.517C404.924 184.775 404.59 185.452 404.582 185.74" stroke="#FFB7C5" stroke-width="3" stroke-linecap="round"/>
<path d="M626.557 237.725C624.271 235.035 628.988 233.567 628.756 236.318C628.651 237.569 627.825 238.369 626.431 237.834C625.413 237.443 626.339 235.628 627.033 235.361C627.773 235.076 628.804 236.107 628.063 236.729C627.494 237.207 626.199 236.386 626.115 236.805C626.019 237.28 625.66 238.537 626.005 238.489C626.199 238.462 627.67 236.644 627.893 236.356C628.322 235.802 629.354 235.583 629.996 235.635C630.514 235.677 628.198 235.207 627.593 235.44C626.531 235.849 627.368 233.677 626.851 233.605C626.603 233.57 627.036 236.602 625.962 235.862C623.357 234.068 626.254 235.967 627.495 236.141C628.258 236.248 628.702 236.92 629.088 237.572C629.401 238.1 628.369 237.036 628.476 236.279" stroke="#FFB7C5" stroke-width="3" stroke-linecap="round"/>
<path d="M614.671 219.685C613.9 219.343 613.993 218.499 614.28 217.814C614.361 217.621 614.732 216.842 615.025 216.863C615.247 216.878 615.437 217.061 615.62 217.167C616.236 217.523 616.431 218.139 616.114 218.811C615.825 219.422 615.116 219.758 614.459 219.597C613.834 219.445 613.579 218.911 613.54 218.299C613.495 217.572 614.164 216.442 614.911 216.319C615.394 216.239 615.77 216.493 616.022 216.889C616.341 217.392 616.103 217.918 615.845 218.387C615.512 218.991 614.851 219.767 614.088 219.754C613.627 219.746 613.279 219.183 613.139 218.792C612.982 218.351 612.983 217.85 613.179 217.42C613.481 216.757 614.434 216.448 615.077 216.232C616.033 215.91 615.719 217.471 615.518 217.982C615.394 218.296 615.254 218.645 614.904 218.751C614.562 218.855 614.082 218.989 613.72 218.938C612.84 218.814 612.931 217.478 613.578 217.111C613.898 216.929 614.756 216.994 614.377 217.545C614.271 217.698 613.989 217.624 613.839 217.568C613.46 217.426 613.004 217.38 612.688 217.111C612.598 217.034 612.216 216.564 612.543 216.766C612.736 216.884 612.945 216.949 613.152 217.041C613.459 217.179 613.538 217.19 613.861 217.11C613.908 217.099 614.367 217.07 614.324 216.961C614.271 216.828 613.885 216.936 613.788 216.796C613.563 216.469 614.127 216.115 614.297 215.975C614.352 215.929 614.386 215.702 614.402 215.793C614.443 216.033 614.393 216.331 614.549 216.538C614.657 216.682 615.138 216.501 615.287 216.485C615.489 216.464 615.667 216.456 615.867 216.484C615.99 216.501 616.818 216.132 616.721 216.457C616.648 216.698 616.015 217.436 616.332 217.697C616.459 217.802 616.806 218.078 616.779 218.269C616.717 218.711 615.805 218.658 615.511 218.84C615.2 219.033 615.029 219.38 614.694 219.547C614.478 219.655 614.568 219.906 614.553 220.108C614.538 220.322 614.531 220.625 614.415 220.81C614.33 220.944 614.102 220.559 614.06 220.496C613.811 220.117 613.24 220.17 612.846 220.092C612.066 219.938 613.498 218.858 612.891 218.772C612.76 218.754 612.646 218.812 612.516 218.818C612.486 218.819 612.165 218.769 612.231 218.747C612.386 218.695 612.604 218.774 612.774 218.731C613.055 218.661 613.271 218.475 613.531 218.365" stroke="#FFB7C5" stroke-width="3" stroke-linecap="round"/>
<path d="M610.977 220.1C608.955 219.816 608.098 219.949 607.06 218.142C606.107 216.484 607.848 213.089 609.637 212.716C613.435 211.922 613.818 219.373 609.751 218.802C608.177 218.58 607.262 214.971 608.974 214.312C610.224 213.831 613.933 214.296 612.502 216.372C611.111 218.391 608.322 217.68 609.454 215.13C609.817 214.313 611.441 215.517 610.863 216.017C610.662 216.19 610.903 214.736 612.025 214.647C614.065 214.485 615.246 216.195 612.702 215.837C611.256 215.634 610.361 216.655 609.113 215.333C608.646 214.838 609.204 214.021 608.159 214.104C607.116 214.186 606.548 215.157 606.472 216.088C606.362 217.446 608.494 215.786 609.094 216.582C609.447 217.05 609.912 220.866 611.016 219.824C611.904 218.986 612.216 215.65 610.778 217.507C609.68 218.925 608.914 214.74 608.992 214.189C609.324 211.822 611.019 211.785 610.649 214.422" stroke="#FFB7C5" stroke-width="3" stroke-linecap="round"/>
<path d="M638.363 241.458C637.417 241.325 636.729 240.934 636.495 240.052C636.298 239.307 636.3 237.302 637.084 236.767C638.647 235.702 640.76 237.092 640.447 238.828C640.222 240.078 638.816 240.143 637.821 240.222C636.644 240.315 637.363 238.228 637.887 237.833C638.537 237.343 639.979 237.962 639.564 238.895C639.352 239.374 638.149 238.283 637.815 238.236C637.108 238.136 635.044 237.561 635.752 237.66C636.297 237.737 637.952 237.934 638.112 237.134C638.169 236.851 639.31 235.212 639.439 235.383C639.725 235.764 639.304 237.056 639.537 237.62C639.953 238.625 640.419 239.028 640.261 240.152C640.086 241.399 640.637 240.634 639.501 240.474C638.629 240.351 638.262 240.872 637.46 240.759C636.985 240.692 635.427 240.277 635.804 240.224C636.615 240.111 637.341 239.664 638.078 239.416" stroke="#FFB7C5" stroke-width="3" stroke-linecap="round"/>
<path d="M465.368 142.493C463.207 144.478 459.154 150.351 460.228 157.961L455.796 148.124C455.567 144.352 471.674 130.791 479.755 124.482C484.085 121.102 495.892 115.089 499.549 107.04C504.121 96.9784 505.278 89.6815 511.659 80.9814C516.763 74.0212 522.418 74.3888 524.321 75.6745C520.711 75.7712 514.353 78.3753 506.113 100.311C495.813 127.732 487.356 119.034 465.368 142.493Z" fill="#212529"/>
<path d="M287.571 94.0706C362.003 90.1698 394.8 17.3354 443.825 92.9229C455.727 111.274 471.269 174.272 460.214 196.891C450.465 216.839 437.627 219.986 432.817 232.21C422.206 248.162 430.916 258.749 443.892 262.95L391 278.579C389.5 269.079 409.323 271.128 403.172 257.704C386.476 221.261 465.239 213.356 432.825 119.904C400.411 26.452 359.967 105.063 287.571 94.0706Z" fill="url(#paint2_linear_42_106)"/>
<path d="M639.538 242.48C620.518 226.223 564.193 192.93 490.159 201.674C397.617 212.604 467.57 261.425 444.981 277.456C422.392 293.487 368.466 305.941 356.811 323.079C346.609 338.079 405 355.079 332.764 404.246C303.352 424.265 307.018 443.352 293.416 440.68C290.744 408.618 299.362 341.703 307.694 329.746C313.912 320.823 330.32 305.881 346.609 298.56C351.467 295.654 360.308 287.366 356.811 277.456C356.584 276.757 355.354 270.169 350.981 262.154C346.609 254.139 358.268 243.937 356.811 245.394C355.353 246.852 355.354 254.139 355.354 257.782C355.354 260.697 358.268 263.854 359.726 265.069C362.883 268.469 368.324 278.332 364.826 290.579C391.779 278.882 417.291 267.453 417.291 255.596C419.923 223.75 422.152 204.049 448.624 188.558C540.139 179.45 634.752 216.248 639.538 242.48Z" fill="url(#paint3_linear_42_106)"/>
<path d="M394.746 233.98C405.626 252.371 407.541 259.887 408.5 263C408.5 230.075 407.767 240.205 406.058 242.288C403.922 244.891 400.014 233.726 397.95 230.075C396.763 227.975 394.258 224.248 391.614 220.982C391.448 220.776 391.281 220.573 391.114 220.372C389.829 218.33 388.728 212.552 392.091 201.178C394.779 196.36 398.315 194.106 402.367 192.765C405.608 191.692 405.779 186.038 405.459 183.345C404.796 185.009 402.801 188.64 400.119 189.853C396.767 191.369 392.263 194.949 390.611 196.889C388.959 198.829 386.51 208.507 386.907 216.004C386.598 215.752 386.298 215.529 386.011 215.34C382.179 212.817 379.675 216.896 372.083 205.596C366.01 196.556 370.31 186.863 373.22 183.146C370.236 183.186 361.14 195.812 369.579 209.675C378.019 223.538 381.147 210.992 394.746 233.98Z" fill="url(#paint4_linear_42_106)"/>
<path d="M377.538 77.4551C378.03 76.5723 378.872 75.8257 379.56 75.0837C379.868 74.7505 380.431 74.4289 380.895 74.498C382.132 74.6821 383.822 75.2649 383.232 76.802C383.105 77.1334 382.886 77.4836 382.467 77.3476C382.058 77.1905 382.162 77.2484 382.467 77.3476C383.392 77.7027 383.364 78.7697 383.376 79.6096C383.381 79.9465 383.529 81.1258 383.007 81.0848C382.633 81.0554 381.488 80.9475 381.283 80.6082C381.032 80.1915 381.495 80.9175 381.566 81.013C382.702 82.5354 383.151 84.2735 382.313 86.0761C381.82 87.1371 381.184 87.1852 380.216 86.8137C379.633 86.5901 378.729 86.2168 379.039 85.4115C379.174 85.0574 379.175 84.8451 378.69 84.8086C378.161 84.7689 377.758 84.7593 377.253 84.5655C376.851 84.4114 376.45 84.2572 376.048 84.1031C375.71 83.9732 375.798 83.1718 375.785 82.8913C375.732 81.7407 376.3 80.7001 377.333 80.2398C377.826 80.0205 378.223 80.0509 378.745 80.0842C379.321 80.1209 378.556 80.0625 378.38 80.086C377.541 80.1981 376.308 79.4265 375.516 79.1225C374.378 78.6855 375.172 77.5584 375.773 77.1353C376.603 76.5512 378.256 76.1697 379.119 76.9697C379.726 77.5314 380.17 78.5566 380.421 79.3332C380.769 80.4089 379.054 80.3728 378.954 79.5537C378.893 79.0444 379.005 78.6813 379.469 78.375C379.675 78.2388 380.309 77.884 380.569 77.952C381.528 78.2028 382.073 79.012 382.815 79.641C383.034 79.8264 383.863 80.1052 383.596 80.0024C382.994 79.7716 383.734 79.9284 383.96 79.9695C384.553 80.0771 385.071 80.1598 385.536 80.5744C385.681 80.7034 386.233 81.1269 386.238 81.3499C386.244 81.6125 382.753 81.1231 382.311 80.9533C382.034 80.8471 381.658 80.7731 381.421 80.587C381.159 80.3816 381.054 80.0493 380.816 79.8487C380.058 79.2109 379.215 80.6111 378.978 81.2289C378.539 82.3724 380.766 83.3592 381.571 83.6684C382.124 83.8805 380.992 83.0517 380.84 82.9682C380.589 82.8294 379.348 82.158 379.113 82.6136C379.004 82.8247 379.896 83.2476 380.061 83.3108C380.647 83.5357 380.891 82.7201 380.938 82.296C381.12 80.6546 380.413 78.8589 380.281 77.2242C380.257 76.9374 380.027 75.7419 380.478 75.6336C381.042 75.4981 381.617 75.6701 382.139 75.8886C383.008 76.2531 380.992 78.0978 380.642 78.4367C379.915 79.14 379.167 79.838 378.396 80.4935C378.118 80.7299 377.729 80.8343 377.483 81.0872C377.298 81.2777 377.123 81.497 377.16 81.8022C377.227 82.3615 378.213 83.018 378.601 83.3676C379.165 83.8755 379.855 84.3426 380.566 84.6155" stroke="#FFB7C5" stroke-width="3" stroke-linecap="round"/>
<path d="M408.632 64.8176C407.622 64.8682 406.543 64.5498 405.55 64.3602C405.103 64.2751 404.532 63.968 404.345 63.538C403.846 62.3917 403.444 60.6494 405.061 60.3353C405.409 60.2675 405.822 60.2675 405.929 60.6947C406.012 61.1252 406.006 61.0064 405.929 60.6947C405.74 59.7223 406.659 59.1803 407.365 58.7252C407.649 58.5427 408.57 57.7923 408.812 58.2562C408.985 58.5892 409.5 59.6172 409.321 59.9708C409.101 60.4049 409.471 59.6275 409.515 59.5165C410.204 57.7465 411.44 56.4447 413.412 56.1999C414.574 56.0558 414.952 56.5701 415.149 57.5878C415.268 58.2002 415.431 59.1646 414.584 59.3292C414.212 59.4016 414.032 59.5137 414.258 59.9444C414.504 60.4136 414.71 60.7611 414.813 61.2919C414.895 61.7142 414.977 62.1364 415.059 62.5587C415.128 62.9144 414.402 63.2643 414.171 63.4239C413.223 64.0784 412.04 64.1486 411.102 63.5157C410.655 63.2143 410.47 62.8611 410.222 62.4015C409.948 61.8929 410.303 62.5727 410.417 62.7098C410.957 63.3618 410.956 64.8163 411.117 65.649C411.35 66.8461 409.973 66.77 409.296 66.4843C408.361 66.09 407.162 64.8906 407.382 63.734C407.537 62.922 408.171 62.002 408.697 61.3775C409.424 60.5122 410.303 61.9866 409.661 62.5046C409.262 62.8268 408.894 62.9239 408.389 62.6932C408.164 62.5907 407.527 62.2403 407.447 61.9842C407.152 61.0381 407.549 60.1471 407.689 59.1846C407.731 58.9008 407.527 58.0494 407.582 58.3309C407.705 58.9631 407.446 58.2529 407.361 58.0394C407.138 57.4796 406.934 56.9967 407.039 56.3824C407.072 56.1913 407.138 55.4988 407.325 55.3761C407.544 55.2316 408.979 58.4512 409.069 58.9164C409.126 59.2073 409.262 59.5654 409.23 59.8652C409.195 60.1963 408.969 60.4612 408.925 60.7697C408.785 61.7501 410.42 61.7233 411.069 61.5971C412.272 61.3634 411.928 58.9521 411.764 58.105C411.651 57.524 411.548 58.9234 411.557 59.0959C411.573 59.383 411.661 60.7905 412.172 60.7488C412.409 60.7295 412.295 59.7487 412.261 59.5754C412.141 58.9593 411.32 59.1845 410.936 59.3694C409.447 60.0849 408.299 61.6356 406.983 62.6144C406.752 62.7861 405.86 63.6149 405.529 63.2901C405.116 62.8836 404.956 62.3046 404.865 61.7465C404.714 60.8157 407.346 61.5479 407.819 61.6653C408.801 61.9091 409.79 62.174 410.754 62.48C411.102 62.5904 411.396 62.865 411.741 62.9396C412.001 62.9957 412.28 63.0283 412.519 62.8353C412.957 62.4815 412.992 61.2972 413.083 60.7831C413.215 60.0363 413.245 59.2031 413.1 58.4557" stroke="#FFB7C5" stroke-width="3" stroke-linecap="round"/>
<path d="M366.426 196.814C366.265 196.043 365.717 195.989 365.023 195.892C364.505 195.819 364.004 195.583 363.723 196.124C363.607 196.348 362.822 198.15 363.22 198.23C363.908 198.369 364.59 197.525 364.9 196.974C364.903 196.968 365.379 196.493 365.169 196.494C364.877 196.495 364.797 196.726 364.625 196.348C364.422 195.903 364.466 195.364 364.37 194.884C364.238 194.225 364.486 195.534 364.509 195.698C364.559 196.058 364.771 196.416 364.765 196.783C364.76 197.114 364.756 197.437 364.788 197.771C364.819 198.106 364.947 199.217 364.956 199.154C364.999 198.85 365.061 196.741 365.435 196.652C366.174 196.475 366.687 196.624 367.235 196.053C367.402 195.879 367.798 195.302 367.395 195.902C366.867 196.688 366.242 197.348 365.557 197.994C365.131 198.397 364.131 197.695 363.804 197.431C363.336 197.052 362.746 197.05 362.235 196.796C361.59 196.475 362.156 196.804 362.482 197.003C363.207 197.446 363.868 197.815 364.696 198.017C365.37 198.182 366.028 198.231 366.492 198.846C366.863 199.339 366.213 198.493 366.109 198.371C365.635 197.815 365.122 197.256 364.683 196.673" stroke="#FFB7C5" stroke-width="3" stroke-linecap="round"/>
<path d="M605.771 221.407C605.61 220.635 605.063 220.581 604.369 220.484C603.85 220.411 603.35 220.175 603.069 220.716C602.952 220.94 602.167 222.742 602.566 222.822C603.254 222.961 603.935 222.118 604.245 221.566C604.249 221.56 604.724 221.085 604.515 221.086C604.223 221.087 604.143 221.318 603.971 220.94C603.768 220.495 603.811 219.956 603.716 219.476C603.584 218.817 603.832 220.126 603.855 220.29C603.905 220.651 604.117 221.008 604.111 221.375C604.106 221.706 604.102 222.029 604.133 222.363C604.165 222.698 604.293 223.809 604.302 223.746C604.345 223.442 604.407 221.333 604.78 221.244C605.52 221.067 606.032 221.216 606.581 220.645C606.748 220.471 607.144 219.894 606.741 220.494C606.212 221.28 605.588 221.94 604.903 222.586C604.476 222.989 603.477 222.287 603.15 222.023C602.682 221.644 602.092 221.642 601.58 221.388C600.935 221.067 601.501 221.396 601.828 221.595C602.553 222.038 603.213 222.407 604.041 222.609C604.716 222.774 605.374 222.823 605.837 223.438C606.209 223.931 605.558 223.085 605.455 222.963C604.981 222.407 604.468 221.848 604.029 221.265" stroke="#FFB7C5" stroke-width="3" stroke-linecap="round"/>
<path d="M590.628 209.922C590.267 209.834 590.028 209.267 589.841 208.986C589.486 208.451 589.13 207.874 589.073 207.22C588.976 206.114 589.551 205.412 590.664 205.139C591.215 205.003 591.89 205.198 592.44 205.281C592.831 205.34 593.14 205.403 593.409 205.694C593.828 206.149 594.303 206.887 594.198 207.529C594.033 208.538 592.621 208.817 591.76 208.696C591.133 208.608 590.508 208.294 590.322 207.642C590.259 207.421 590.065 206.161 590.503 206.209C590.93 206.256 590.867 206.337 591.139 206.617C591.23 206.712 591.776 207.188 591.629 207.328C591.491 207.458 590.733 206.084 590.732 205.893C590.731 205.511 590.653 205.03 590.853 204.668C591.232 203.983 591.87 203.445 592.677 203.559C593.057 203.612 593.739 203.528 593.764 204.04C593.804 204.867 593.451 205.224 592.994 205.872C592.88 206.033 592.86 206.171 592.638 206.14C592.544 206.127 592.295 206.11 592.476 205.974C593.15 205.466 594.173 206.362 594.531 206.837C594.846 207.255 595.223 208.892 594.388 208.952C593.715 209 593.091 208.574 592.594 208.166C592.488 208.08 591.749 207.277 592.3 207.483C592.581 207.589 592.426 208.303 592.397 208.508C592.319 209.067 592.205 209.014 591.755 209.136C590.779 209.401 589.867 209.093 589.112 208.508C588.698 208.187 588.941 207.436 589.074 207.025C589.217 206.587 589.925 206.898 589.165 206.966C589.073 206.974 588.754 207.152 588.682 207.042C588.571 206.872 588.795 206.533 588.821 206.348C588.876 205.951 588.833 205.824 588.716 205.45C588.549 204.916 588.637 204.606 589.122 205.153C589.486 205.564 590.039 206.514 590.633 206.597" stroke="#FFB7C5" stroke-width="3" stroke-linecap="round"/>
<path d="M504.438 114.432C502.415 114.148 501.559 114.281 500.52 112.474C499.568 110.816 501.309 107.421 503.098 107.048C506.896 106.254 507.279 113.705 503.212 113.134C501.637 112.912 500.723 109.303 502.435 108.644C503.685 108.163 507.393 108.628 505.963 110.704C504.572 112.723 501.783 112.012 502.915 109.462C503.278 108.645 504.902 109.849 504.323 110.349C504.123 110.522 504.363 109.068 505.486 108.979C507.526 108.817 508.707 110.527 506.163 110.169C504.717 109.966 503.821 110.987 502.573 109.665C502.107 109.17 502.665 108.353 501.62 108.436C500.576 108.518 500.008 109.489 499.933 110.42C499.823 111.778 501.955 110.118 502.554 110.914C502.908 111.382 503.373 115.198 504.477 114.156C505.365 113.318 505.676 109.982 504.239 111.839C503.141 113.257 502.375 109.072 502.453 108.521C502.785 106.154 504.48 106.117 504.109 108.754" stroke="#FFB7C5" stroke-width="3" stroke-linecap="round"/>
<path d="M336.133 93.015C337.061 91.1953 337.214 90.3419 339.261 89.9487C341.138 89.588 343.781 92.3389 343.552 94.1521C343.066 98.0018 335.896 95.9382 337.76 92.2791C338.482 90.862 342.192 91.172 342.258 93.006C342.306 94.3441 340.659 97.6992 339.162 95.6707C337.706 93.6982 339.286 91.2924 341.328 93.193C341.983 93.8024 340.316 94.9456 340.032 94.2362C339.933 93.9903 341.23 94.6912 340.948 95.7813C340.437 97.7626 338.436 98.3233 339.602 96.0343C340.265 94.733 339.591 93.5538 341.248 92.8044C341.868 92.5241 342.459 93.3181 342.721 92.3029C342.982 91.2894 342.249 90.4362 341.394 90.0619C340.146 89.5158 341.021 92.0719 340.074 92.3798C339.515 92.5612 335.756 91.7586 336.382 93.1416C336.885 94.2544 339.938 95.6349 338.65 93.6715C337.667 92.1714 341.873 92.8097 342.369 93.0623C344.499 94.1478 343.982 95.7621 341.609 94.5531" stroke="#FFB7C5" stroke-width="3" stroke-linecap="round"/>
<path d="M511.573 95.723C507.498 95.1504 510.475 89.9522 512.729 91.5051C517.572 94.8418 508.499 97.5558 509.005 93.9542C509.574 89.9084 515.742 92.4237 511.314 93.559C510.982 93.6441 511.17 94.0187 511.79 95.0652C512.887 96.9146 511.171 96.5601 512.583 94.7699C513.624 93.4491 517.109 95.9379 513.031 95.3648C510.813 95.053 512.117 97.6968 510.96 97.8583C509.415 98.0738 509.086 97.0491 508.121 96.2391C507.018 95.3132 508.341 93.7914 509.227 93.2658C509.495 93.1072 510.574 93.3299 510.41 93.3069C509.683 93.2047 507.915 93.3108 507.504 92.6168C506.677 91.2219 508.847 91.6369 509.238 92.2974C510.08 93.7169 511.098 94.0406 512.435 93.5915" stroke="#FFB7C5" stroke-width="3" stroke-linecap="round"/>
<path d="M596 219.127C591.925 218.555 594.902 213.357 597.156 214.909C601.999 218.246 592.926 220.96 593.432 217.359C594.001 213.313 600.169 215.828 595.741 216.963C595.409 217.048 595.597 217.423 596.217 218.47C597.313 220.319 595.598 219.964 597.01 218.174C598.051 216.853 601.536 219.342 597.458 218.769C595.24 218.457 596.543 221.101 595.387 221.263C593.842 221.478 593.513 220.453 592.548 219.643C591.445 218.718 592.767 217.196 593.654 216.67C593.922 216.511 595.001 216.734 594.837 216.711C594.11 216.609 592.342 216.715 591.931 216.021C591.104 214.626 593.274 215.041 593.665 215.702C594.507 217.121 595.525 217.445 596.862 216.996" stroke="#FFB7C5" stroke-width="3" stroke-linecap="round"/>
<path d="M577 210.127C572.925 209.555 575.902 204.357 578.156 205.909C582.999 209.246 573.926 211.96 574.432 208.359C575.001 204.313 581.169 206.828 576.741 207.963C576.409 208.048 576.597 208.423 577.217 209.47C578.313 211.319 576.598 210.964 578.01 209.174C579.051 207.853 582.536 210.342 578.458 209.769C576.24 209.457 577.543 212.101 576.387 212.263C574.842 212.478 574.513 211.453 573.548 210.643C572.445 209.718 573.767 208.196 574.654 207.67C574.922 207.511 576.001 207.734 575.837 207.711C575.11 207.609 573.342 207.715 572.931 207.021C572.104 205.626 574.274 206.041 574.665 206.702C575.507 208.121 576.525 208.445 577.862 207.996" stroke="#FFB7C5" stroke-width="3" stroke-linecap="round"/>
<path d="M366.128 72.8448C365.984 76.9566 360.503 74.54 361.812 72.136C364.624 66.9707 368.272 75.7098 364.637 75.5829C360.554 75.4403 362.411 69.0433 364.003 73.3286C364.122 73.6498 364.475 73.4235 365.451 72.6971C367.175 71.4135 367.002 73.1567 365.074 71.9399C363.652 71.0422 365.763 67.3161 365.619 71.4319C365.541 73.6703 368.034 72.0975 368.315 73.2312C368.691 74.7446 367.706 75.1791 367.002 76.2235C366.196 77.4175 364.544 76.261 363.929 75.4342C363.743 75.1847 363.852 74.0878 363.846 74.2532C363.821 74.9869 364.111 76.7344 363.464 77.2161C362.163 78.1843 362.349 75.9829 362.965 75.5245C364.289 74.5393 364.504 73.4923 363.918 72.2095" stroke="#FFB7C5" stroke-width="3" stroke-linecap="round"/>
<path d="M333.109 85.3106C329.034 84.738 332.011 79.5398 334.265 81.0927C339.108 84.4294 330.035 87.1433 330.541 83.5418C331.11 79.496 337.278 82.0112 332.85 83.1466C332.518 83.2317 332.706 83.6063 333.326 84.6528C334.423 86.5021 332.707 86.1477 334.119 84.3574C335.16 83.0366 338.645 85.5255 334.567 84.9523C332.349 84.6406 333.653 87.2844 332.496 87.4459C330.951 87.6614 330.622 86.6366 329.657 85.8267C328.554 84.9008 329.877 83.3789 330.763 82.8533C331.031 82.6947 332.11 82.9175 331.946 82.8945C331.219 82.7923 329.451 82.8983 329.04 82.2044C328.213 80.8094 330.383 81.2245 330.774 81.8849C331.616 83.3044 332.634 83.6281 333.971 83.1791" stroke="#FFB7C5" stroke-width="3" stroke-linecap="round"/>
<path d="M516.832 76.4659C515.483 76.1211 517.988 73.5467 517.73 75.3802C517.672 75.7942 516.769 76.6097 516.355 76.171C516.086 75.886 516.938 74.6097 517.154 75.2059C517.522 76.2235 514.516 75.2082 515.599 75.3604C516.412 75.4746 516.575 75.6406 516.512 74.836C516.477 74.3978 516.929 73.198 517.034 73.625C517.111 73.937 517.289 74.5392 517.246 74.846C517.151 75.5169 517.895 75.1374 518.286 75.4065C518.575 75.6056 519.091 76.4105 518.447 76.32C517.927 76.2468 517.42 76.2612 517.342 76.8172C517.301 77.1049 516.598 77.6528 516.607 77.3252C516.625 76.7201 517.42 76.735 516.623 76.623C516.052 76.5428 515.972 76.0034 515.375 76.2197C514.836 76.4148 514.967 76.5579 515.395 76.0774" stroke="#FFB7C5" stroke-width="3" stroke-linecap="round"/>
<path d="M372.594 190.976C372.043 192.254 369.892 189.377 371.662 189.919C372.062 190.041 372.726 191.06 372.228 191.4C371.905 191.621 370.777 190.581 371.4 190.461C372.463 190.256 370.99 193.066 371.309 192.02C371.549 191.236 371.739 191.1 370.934 191.037C370.496 191.003 369.382 190.368 369.82 190.332C370.14 190.305 370.763 190.223 371.059 190.314C371.707 190.512 371.448 189.718 371.775 189.374C372.017 189.12 372.893 188.736 372.703 189.357C372.549 189.86 372.484 190.363 373.021 190.527C373.299 190.612 373.73 191.393 373.408 191.332C372.813 191.22 372.952 190.437 372.717 191.206C372.548 191.758 372.003 191.752 372.123 192.377C372.231 192.939 372.393 192.832 371.986 192.335" stroke="#FFB7C5" stroke-width="3" stroke-linecap="round"/>
<path d="M399.937 191.598C398.589 191.253 401.093 188.679 400.836 190.512C400.778 190.926 399.875 191.742 399.461 191.303C399.192 191.018 400.044 189.742 400.259 190.338C400.628 191.356 397.622 190.34 398.705 190.493C399.517 190.607 399.681 190.773 399.617 189.968C399.583 189.53 400.035 188.33 400.14 188.757C400.216 189.069 400.395 189.671 400.351 189.978C400.257 190.649 401.001 190.27 401.391 190.539C401.68 190.738 402.197 191.543 401.553 191.452C401.032 191.379 400.525 191.393 400.447 191.949C400.407 192.237 399.703 192.785 399.713 192.457C399.731 191.852 400.525 191.867 399.729 191.755C399.158 191.675 399.078 191.136 398.48 191.352C397.941 191.547 398.072 191.69 398.5 191.21" stroke="#FFB7C5" stroke-width="3" stroke-linecap="round"/>
<path d="M387.957 60.2524C386.609 59.9076 389.114 57.3333 388.856 59.1667C388.798 59.5807 387.895 60.3962 387.481 59.9575C387.212 59.6725 388.064 58.3962 388.28 58.9925C388.648 60.01 385.642 58.9947 386.725 59.1469C387.537 59.2611 387.701 59.4271 387.638 58.6226C387.603 58.1843 388.055 56.9846 388.16 57.4115C388.237 57.7235 388.415 58.3257 388.372 58.6325C388.277 59.3034 389.021 58.9239 389.412 59.193C389.701 59.3921 390.217 60.197 389.573 60.1066C389.052 60.0334 388.546 60.0477 388.467 60.6037C388.427 60.8914 387.724 61.4393 387.733 61.1117C387.751 60.5066 388.545 60.5215 387.749 60.4095C387.178 60.3293 387.098 59.7899 386.5 60.0062C385.961 60.2013 386.093 60.3444 386.52 59.864" stroke="#FFB7C5" stroke-width="3" stroke-linecap="round"/>
<path d="M311.465 96.7435C310.116 96.3988 312.621 93.8244 312.363 95.6578C312.305 96.0719 311.402 96.8874 310.988 96.4487C310.719 96.1637 311.571 94.8873 311.787 95.4836C312.155 96.5011 309.149 95.4858 310.232 95.638C311.045 95.7522 311.208 95.9183 311.145 95.1137C311.11 94.6754 311.562 93.4757 311.667 93.9027C311.744 94.2146 311.922 94.8168 311.879 95.1236C311.785 95.7946 312.528 95.415 312.919 95.6841C313.208 95.8833 313.724 96.6882 313.08 96.5977C312.56 96.5245 312.053 96.5388 311.975 97.0949C311.934 97.3826 311.231 97.9305 311.24 97.6028C311.258 96.9978 312.053 97.0126 311.256 96.9007C310.685 96.8204 310.605 96.281 310.008 96.4973C309.469 96.6924 309.6 96.8356 310.028 96.3551" stroke="#FFB7C5" stroke-width="3" stroke-linecap="round"/>
<path d="M630.298 229.581C629.83 229.515 629.801 229.408 629.867 228.941C629.944 228.393 630.185 227.558 630.784 227.357C631.7 227.049 631.701 229.058 631.055 229.383C629.923 229.952 629.301 228.124 630.277 227.633C631.309 227.114 632.16 229.434 630.382 229.327C629.474 229.273 628.263 228.218 629.355 227.431C629.853 227.073 631.402 226.671 631.255 227.718C631.162 228.377 630.644 229.182 629.892 228.896C629.597 228.784 629.577 228.177 629.967 228.231C630.097 228.25 629.823 228.908 629.774 228.986C629.67 229.148 629.608 229.486 629.432 229.565C629.371 229.592 629.027 230.101 629.238 229.847C629.542 229.479 630.67 228.767 631.005 229.463C631.128 229.719 631.345 229.897 631.484 230.138C631.64 230.41 631.946 230.236 631.841 229.966C631.667 229.522 631.566 229.064 631.439 228.607C631.318 228.177 631.681 228.276 631.942 228.118C632.174 227.977 632.827 227.563 632.167 227.715C631.847 227.79 631.49 227.666 631.249 227.451C631.089 227.309 630.993 227.046 630.852 226.879C630.685 226.683 630.546 226.627 630.467 226.391C630.436 226.3 630.314 226.888 630.229 226.985C629.836 227.425 629.602 227.073 629.185 226.992C628.457 226.851 629.657 228.275 628.999 228.182C628.79 228.153 628.225 228.259 628.353 228.246C628.772 228.201 629.186 228.295 629.602 228.354" stroke="#FFB7C5" stroke-width="3" stroke-linecap="round"/>
<path d="M507.408 89.1256C505.834 88.9045 507.491 85.9405 508.375 87.2521C508.602 87.5875 508.174 88.3861 507.993 88.6485C507.612 89.2008 507.004 88.5774 507.194 88.07C507.4 87.5183 508.427 88.1107 507.446 88.1884C506.99 88.2246 506.375 88.4212 505.931 88.3587C505.612 88.3139 505.611 88.5451 505.917 88.5328C506.228 88.5203 506.391 88.2921 506.689 88.2685C507.706 88.188 507.162 88.2849 507.616 88.9685C508.044 89.6118 507.914 89.3457 508.358 88.6999C508.694 88.2126 508.913 88.2462 509.422 88.0621C510.18 87.7878 510.599 87.8961 509.427 87.7313C508.888 87.6556 507.801 87.9965 507.689 87.1971C507.308 84.4673 507.733 87.5045 506.843 87.1714C506.645 87.097 505.867 86.3194 506.028 86.342C506.31 86.3817 506.695 87.0305 506.933 87.1944" stroke="#FFB7C5" stroke-width="3" stroke-linecap="round"/>
<path d="M357.441 84.2473C355.867 84.0261 357.525 81.0621 358.409 82.3737C358.635 82.7092 358.207 83.5078 358.026 83.7701C357.646 84.3224 357.037 83.699 357.227 83.1917C357.434 82.6399 358.46 83.2323 357.48 83.31C357.023 83.3462 356.409 83.5428 355.964 83.4803C355.646 83.4355 355.645 83.6667 355.95 83.6544C356.261 83.6419 356.424 83.4137 356.723 83.3901C357.739 83.3096 357.195 83.4065 357.65 84.0901C358.078 84.7334 357.947 84.4673 358.392 83.8215C358.727 83.3342 358.946 83.3678 359.455 83.1837C360.213 82.9094 360.633 83.0177 359.46 82.8529C358.921 82.7772 357.834 83.1181 357.723 82.3187C357.342 79.5889 357.766 82.6261 356.877 82.293C356.678 82.2186 355.9 81.441 356.061 81.4636C356.343 81.5033 356.729 82.1521 356.967 82.316" stroke="#FFB7C5" stroke-width="3" stroke-linecap="round"/>
<path d="M627.766 240.349C627.093 240.239 626.421 239.838 625.789 239.548C625.505 239.418 625.168 239.101 625.099 238.748C624.917 237.806 624.875 236.426 625.983 236.426C626.222 236.426 626.495 236.487 626.51 236.827C626.51 237.165 626.522 237.074 626.51 236.827C626.51 236.062 627.187 235.786 627.712 235.546C627.923 235.449 628.628 235.016 628.728 235.403C628.8 235.681 629.008 236.536 628.844 236.778C628.643 237.074 628.987 236.54 629.03 236.462C629.713 235.222 630.696 234.418 632.031 234.523C632.816 234.585 633 235.03 633 235.83C633 236.312 632.983 237.067 632.403 237.067C632.148 237.067 632.014 237.125 632.108 237.485C632.211 237.877 632.302 238.17 632.302 238.588C632.302 238.92 632.302 239.252 632.302 239.584C632.302 239.864 631.777 240.022 631.604 240.109C630.894 240.465 630.104 240.344 629.565 239.726C629.309 239.432 629.232 239.137 629.127 238.752C629.011 238.327 629.159 238.894 629.216 239.015C629.489 239.588 629.302 240.69 629.302 241.345C629.302 242.287 628.402 242.026 627.991 241.71C627.424 241.273 626.786 240.188 627.08 239.344C627.287 238.751 627.824 238.148 628.251 237.752C628.843 237.203 629.234 238.45 628.743 238.748C628.438 238.933 628.183 238.953 627.879 238.703C627.744 238.593 627.368 238.233 627.348 238.027C627.274 237.267 627.651 236.65 627.867 235.941C627.931 235.733 627.906 235.057 627.906 235.279C627.906 235.776 627.826 235.2 627.797 235.025C627.722 234.568 627.649 234.172 627.797 233.722C627.843 233.582 627.976 233.067 628.115 233.002C628.279 232.924 628.813 235.576 628.813 235.941C628.813 236.17 628.857 236.462 628.798 236.684C628.732 236.93 628.548 237.097 628.48 237.325C628.262 238.047 629.345 238.268 629.79 238.268C630.614 238.268 630.697 236.39 630.697 235.724C630.697 235.267 630.449 236.312 630.434 236.444C630.407 236.664 630.284 237.743 630.627 237.787C630.786 237.807 630.837 237.047 630.837 236.911C630.837 236.427 630.265 236.476 629.988 236.56C628.913 236.883 627.955 237.889 626.96 238.437C626.785 238.533 626.09 239.029 625.913 238.735C625.692 238.365 625.661 237.903 625.673 237.467C625.692 236.739 627.337 237.682 627.634 237.841C628.252 238.17 628.871 238.516 629.468 238.89C629.684 239.025 629.843 239.277 630.061 239.384C630.226 239.465 630.406 239.53 630.589 239.419C630.924 239.216 631.098 238.323 631.224 237.947C631.408 237.401 631.535 236.774 631.535 236.186" stroke="#FFB7C5" stroke-width="3" stroke-linecap="round"/>
<path d="M622.111 225.52C621.11 225.377 620.112 224.858 619.173 224.483C618.751 224.314 618.249 223.903 618.147 223.446C617.876 222.225 617.814 220.438 619.461 220.438C619.816 220.438 620.221 220.517 620.244 220.957C620.244 221.395 620.261 221.278 620.244 220.957C620.244 219.966 621.25 219.609 622.03 219.298C622.343 219.172 623.391 218.612 623.54 219.113C623.646 219.473 623.956 220.58 623.712 220.893C623.414 221.278 623.925 220.585 623.989 220.484C625.003 218.878 626.465 217.836 628.448 217.972C629.615 218.053 629.888 218.63 629.888 219.666C629.888 220.29 629.864 221.268 629.001 221.268C628.622 221.268 628.424 221.343 628.563 221.809C628.716 222.317 628.851 222.697 628.851 223.238C628.851 223.668 628.851 224.098 628.851 224.529C628.851 224.891 628.072 225.096 627.814 225.208C626.759 225.67 625.584 225.513 624.784 224.713C624.403 224.332 624.289 223.95 624.133 223.451C623.961 222.9 624.18 223.635 624.266 223.791C624.671 224.534 624.392 225.962 624.392 226.81C624.392 228.03 623.055 227.692 622.445 227.282C621.602 226.717 620.654 225.311 621.091 224.218C621.398 223.45 622.196 222.668 622.831 222.155C623.711 221.445 624.292 223.06 623.563 223.446C623.109 223.686 622.73 223.711 622.278 223.388C622.077 223.244 621.518 222.779 621.489 222.512C621.379 221.527 621.939 220.728 622.261 219.81C622.355 219.54 622.318 218.665 622.318 218.952C622.318 219.596 622.2 218.849 622.157 218.623C622.045 218.031 621.937 217.518 622.157 216.935C622.225 216.754 622.423 216.087 622.629 216.002C622.872 215.902 623.666 219.336 623.666 219.81C623.666 220.107 623.732 220.484 623.643 220.772C623.545 221.091 623.273 221.308 623.171 221.602C622.847 222.538 624.456 222.823 625.118 222.823C626.343 222.823 626.466 220.391 626.466 219.528C626.466 218.936 626.098 220.29 626.075 220.461C626.035 220.746 625.853 222.144 626.363 222.201C626.599 222.227 626.674 221.243 626.674 221.066C626.674 220.439 625.825 220.503 625.412 220.611C623.814 221.029 622.391 222.333 620.913 223.042C620.653 223.167 619.62 223.81 619.357 223.428C619.028 222.95 618.983 222.351 619 221.786C619.028 220.844 621.473 222.065 621.915 222.27C622.832 222.697 623.752 223.145 624.64 223.63C624.96 223.805 625.197 224.13 625.521 224.269C625.766 224.374 626.033 224.459 626.305 224.315C626.803 224.052 627.062 222.896 627.25 222.409C627.522 221.701 627.711 220.889 627.711 220.127" stroke="#FFB7C5" stroke-width="3" stroke-linecap="round"/>
<defs>
<linearGradient id="paint0_linear_42_106" x1="155.947" y1="343.745" x2="128.75" y2="150.225" gradientUnits="userSpaceOnUse">
<stop stop-color="#212529"/>
<stop offset="0.730208" stop-color="#423237"/>
<stop offset="1" stop-color="#A55861"/>
</linearGradient>
<linearGradient id="paint1_linear_42_106" x1="154.5" y1="206" x2="110.886" y2="135.662" gradientUnits="userSpaceOnUse">
<stop stop-color="#3E3035"/>
<stop offset="1" stop-color="#A55861"/>
</linearGradient>
<linearGradient id="paint2_linear_42_106" x1="163" y1="548.079" x2="306.5" y2="77.5789" gradientUnits="userSpaceOnUse">
<stop stop-color="#346F50"/>
<stop offset="0.35" stop-color="#48BB78"/>
<stop offset="1" stop-color="#212529"/>
</linearGradient>
<linearGradient id="paint3_linear_42_106" x1="588" y1="385.5" x2="563" y2="157.5" gradientUnits="userSpaceOnUse">
<stop stop-color="#212529"/>
<stop offset="0.764505" stop-color="#3B895E"/>
<stop offset="1" stop-color="#48BB78"/>
</linearGradient>
<linearGradient id="paint4_linear_42_106" x1="416" y1="260" x2="395" y2="212" gradientUnits="userSpaceOnUse">
<stop stop-color="#32694D"/>
<stop offset="1" stop-color="#212529"/>
</linearGradient>
</defs>
</svg>
