<svg width="693" height="489" viewBox="0 0 693 489" fill="none" xmlns="http://www.w3.org/2000/svg">
<path d="M289.473 210.422C264.091 224.855 267.261 257.119 271.408 275.865C263.777 274.206 249.212 265.513 251.999 244.014C254.786 222.514 273.547 204.596 282.505 201.123C306.891 191.667 311.868 187.279 322.171 171.76C340.392 144.313 356.013 137.512 372.436 156.423C385.575 171.553 383.551 191.592 381.394 199.721C379.901 193.749 387.366 177.326 366.464 156.423C345.562 135.521 324.31 183.206 322.171 187.279C319.157 193.017 299.592 207.27 289.473 210.422Z" fill="#212529" stroke="#212529"/>
<path d="M5.79566 209.558C18.2851 195.431 56.8286 164.676 112.997 163.437C183.207 161.888 136.122 205.66 154.662 215.255C173.201 224.849 225.167 235.396 237.71 244.704C259.869 261.149 255.806 269.466 251.077 302.647C248.777 318.787 239.976 324.283 236.549 325.715C234.51 326.16 234.929 326.392 236.549 325.715C240.46 324.861 253.412 323.224 284.264 325.711C282.895 301.503 270.075 247.929 262.603 239.879C257.027 233.872 243.214 224.442 230.29 220.686C226.359 219.028 218.892 213.77 220.463 206.007C220.559 205.461 220.786 200.416 223.208 193.975C225.63 187.535 215.859 181.144 217.1 182.079C218.34 183.014 219.105 188.452 219.487 191.171C219.793 193.346 217.948 196.009 216.988 197.068C214.988 199.937 211.962 207.868 215.857 216.641C194.516 210.739 174.277 204.885 173.034 196.036C167.729 172.545 164 158.076 142.618 149.292C73.3656 152.094 10.4426 191.102 5.79566 209.558Z" fill="url(#paint0_linear_42_106)"/>
<path d="M130.785 201.625C141.547 210.596 157.81 216.62 164.596 218.51L163.135 209.29C155.055 207.419 137.769 202.187 133.267 196.228C127.639 188.78 128.466 186.981 123.805 171.595C113.86 150.93 97.4253 138.788 91.3861 138.922C81.2902 139.144 79.3754 146.77 72.5202 149.694C81.7998 152.116 83.9593 130.646 104.811 153.475C125.663 176.305 117.333 190.412 130.785 201.625Z" fill="url(#paint1_linear_42_106)"/>
<path d="M335.259 187.032C328.888 186.235 320.992 187.861 317.84 190.018L316.347 186.036L319.831 184.045C324.31 184.045 330.686 183.598 334.263 184.045C338.245 184.543 345.212 184.543 350.686 177.576C349.193 184.543 341.629 187.828 335.259 187.032Z" fill="#212529" stroke="#212529"/>
<path d="M465.368 142.493C463.207 144.478 459.154 150.351 460.228 157.961L455.796 148.124C455.567 144.352 471.674 130.791 479.755 124.482C484.085 121.102 495.892 115.089 499.549 107.04C504.121 96.9784 505.278 89.6815 511.659 80.9814C516.763 74.0212 522.418 74.3888 524.321 75.6745C520.711 75.7712 514.353 78.3753 506.113 100.311C495.813 127.732 487.356 119.034 465.368 142.493Z" fill="#212529"/>
<path d="M287.571 94.0706C362.003 90.1698 394.8 17.3354 443.825 92.9229C455.727 111.274 471.269 174.272 460.214 196.891C450.465 216.839 437.627 219.986 432.817 232.21C422.206 248.162 430.916 258.749 443.892 262.95L391 278.579C389.5 269.079 409.323 271.128 403.172 257.704C386.476 221.261 465.239 213.356 432.825 119.904C400.411 26.452 359.967 105.063 287.571 94.0706Z" fill="url(#paint2_linear_42_106)"/>
<path d="M639.538 242.48C620.518 226.223 564.193 192.93 490.159 201.674C397.617 212.604 467.57 261.425 444.981 277.456C422.392 293.487 368.466 305.941 356.811 323.079C346.609 338.079 405 355.079 332.764 404.246C303.352 424.265 307.018 443.352 293.416 440.68C290.744 408.618 299.362 341.703 307.694 329.746C313.912 320.823 330.32 305.881 346.609 298.56C351.467 295.654 360.308 287.366 356.811 277.456C356.584 276.757 355.354 270.169 350.981 262.154C346.609 254.139 358.268 243.937 356.811 245.394C355.353 246.852 355.354 254.139 355.354 257.782C355.354 260.697 358.268 263.854 359.726 265.069C362.883 268.469 368.324 278.332 364.826 290.579C391.779 278.882 417.291 267.453 417.291 255.596C419.923 223.75 422.152 204.049 448.624 188.558C540.139 179.45 634.752 216.248 639.538 242.48Z" fill="url(#paint3_linear_42_106)"/>
<path d="M394.746 233.98C405.626 252.371 407.541 259.887 408.5 263C408.5 230.075 407.767 240.205 406.058 242.288C403.922 244.891 400.014 233.726 397.95 230.075C396.763 227.975 394.258 224.248 391.614 220.982C391.448 220.776 391.281 220.573 391.114 220.372C389.829 218.33 388.728 212.552 392.091 201.178C394.779 196.36 398.315 194.106 402.367 192.765C405.608 191.692 405.779 186.038 405.459 183.345C404.796 185.009 402.801 188.64 400.119 189.853C396.767 191.369 392.263 194.949 390.611 196.889C388.959 198.829 386.51 208.507 386.907 216.004C386.598 215.752 386.298 215.529 386.011 215.34C382.179 212.817 379.675 216.896 372.083 205.596C366.01 196.556 370.31 186.863 373.22 183.146C370.236 183.186 361.14 195.812 369.579 209.675C378.019 223.538 381.147 210.992 394.746 233.98Z" fill="url(#paint4_linear_42_106)"/>
<defs>
<linearGradient id="paint0_linear_42_106" x1="155.947" y1="343.745" x2="128.75" y2="150.225" gradientUnits="userSpaceOnUse">
<stop stop-color="#212529"/>
<stop offset="0.730208" stop-color="#423237"/>
<stop offset="1" stop-color="#A55861"/>
</linearGradient>
<linearGradient id="paint1_linear_42_106" x1="154.5" y1="206" x2="110.886" y2="135.662" gradientUnits="userSpaceOnUse">
<stop stop-color="#3E3035"/>
<stop offset="1" stop-color="#A55861"/>
</linearGradient>
<linearGradient id="paint2_linear_42_106" x1="163" y1="548.079" x2="306.5" y2="77.5789" gradientUnits="userSpaceOnUse">
<stop stop-color="#346F50"/>
<stop offset="0.35" stop-color="#48BB78"/>
<stop offset="1" stop-color="#212529"/>
</linearGradient>
<linearGradient id="paint3_linear_42_106" x1="588" y1="385.5" x2="563" y2="157.5" gradientUnits="userSpaceOnUse">
<stop stop-color="#212529"/>
<stop offset="0.764505" stop-color="#3B895E"/>
<stop offset="1" stop-color="#48BB78"/>
</linearGradient>
<linearGradient id="paint4_linear_42_106" x1="416" y1="260" x2="395" y2="212" gradientUnits="userSpaceOnUse">
<stop stop-color="#32694D"/>
<stop offset="1" stop-color="#212529"/>
</linearGradient>
</defs>
</svg>
